<mxfile host="app.diagrams.net" agent="Mozilla/5.0 (Macintosh; Intel Mac OS X 10_15_7) AppleWebKit/537.36 (KHTML, like Gecko) Chrome/135.0.0.0 Safari/537.36" version="27.0.1">
  <diagram name="第 1 页" id="wkEFEvMQbcb6Iirog6Ge">
    <mxGraphModel dx="1426" dy="791" grid="1" gridSize="10" guides="1" tooltips="1" connect="1" arrows="1" fold="1" page="1" pageScale="1" pageWidth="827" pageHeight="1169" math="0" shadow="0">
      <root>
        <mxCell id="0" />
        <mxCell id="1" parent="0" />
        <mxCell id="xp_wefksQ9KYBnecpLCK-5" value="web" style="swimlane;startSize=20;html=1;" vertex="1" parent="1">
          <mxGeometry x="40" y="50" width="100" height="510" as="geometry" />
        </mxCell>
        <mxCell id="xp_wefksQ9KYBnecpLCK-10" value="下单" style="ellipse;whiteSpace=wrap;html=1;aspect=fixed;" vertex="1" parent="xp_wefksQ9KYBnecpLCK-5">
          <mxGeometry x="25" y="40" width="50" height="50" as="geometry" />
        </mxCell>
        <mxCell id="xp_wefksQ9KYBnecpLCK-22" value="web页面" style="ellipse;whiteSpace=wrap;html=1;aspect=fixed;" vertex="1" parent="xp_wefksQ9KYBnecpLCK-5">
          <mxGeometry x="25" y="320" width="50" height="50" as="geometry" />
        </mxCell>
        <mxCell id="xp_wefksQ9KYBnecpLCK-8" value="cxo-user" style="swimlane;startSize=20;html=1;" vertex="1" parent="1">
          <mxGeometry x="300" y="50" width="130" height="510" as="geometry" />
        </mxCell>
        <mxCell id="xp_wefksQ9KYBnecpLCK-13" value="&lt;font style=&quot;font-size: 10px;&quot;&gt;获取用户交易相关配置&lt;/font&gt;" style="rounded=1;whiteSpace=wrap;html=1;" vertex="1" parent="xp_wefksQ9KYBnecpLCK-8">
          <mxGeometry x="20" y="47.5" width="90" height="35" as="geometry" />
        </mxCell>
        <mxCell id="xp_wefksQ9KYBnecpLCK-9" value="cxo-order" style="swimlane;startSize=20;html=1;" vertex="1" parent="1">
          <mxGeometry x="140" y="50" width="160" height="510" as="geometry" />
        </mxCell>
        <mxCell id="xp_wefksQ9KYBnecpLCK-12" value="创建业务订单" style="rounded=1;whiteSpace=wrap;html=1;" vertex="1" parent="xp_wefksQ9KYBnecpLCK-9">
          <mxGeometry x="40" y="45" width="90" height="40" as="geometry" />
        </mxCell>
        <mxCell id="xp_wefksQ9KYBnecpLCK-26" style="edgeStyle=orthogonalEdgeStyle;rounded=0;orthogonalLoop=1;jettySize=auto;html=1;exitX=1;exitY=0.5;exitDx=0;exitDy=0;" edge="1" parent="xp_wefksQ9KYBnecpLCK-9" source="xp_wefksQ9KYBnecpLCK-14">
          <mxGeometry relative="1" as="geometry">
            <mxPoint x="310" y="150" as="targetPoint" />
          </mxGeometry>
        </mxCell>
        <mxCell id="xp_wefksQ9KYBnecpLCK-14" value="构建交易订单" style="rounded=1;whiteSpace=wrap;html=1;" vertex="1" parent="xp_wefksQ9KYBnecpLCK-9">
          <mxGeometry x="40" y="130" width="90" height="40" as="geometry" />
        </mxCell>
        <mxCell id="xp_wefksQ9KYBnecpLCK-34" style="edgeStyle=orthogonalEdgeStyle;rounded=0;orthogonalLoop=1;jettySize=auto;html=1;exitX=0.5;exitY=1;exitDx=0;exitDy=0;entryX=0.5;entryY=0;entryDx=0;entryDy=0;" edge="1" parent="xp_wefksQ9KYBnecpLCK-9" source="xp_wefksQ9KYBnecpLCK-20" target="xp_wefksQ9KYBnecpLCK-21">
          <mxGeometry relative="1" as="geometry" />
        </mxCell>
        <mxCell id="xp_wefksQ9KYBnecpLCK-20" value="接收交易订单交易结果" style="rounded=1;whiteSpace=wrap;html=1;" vertex="1" parent="xp_wefksQ9KYBnecpLCK-9">
          <mxGeometry x="40" y="232.5" width="92.5" height="40" as="geometry" />
        </mxCell>
        <mxCell id="xp_wefksQ9KYBnecpLCK-21" value="其他业务处理,邀请返佣，策略返佣" style="ellipse;whiteSpace=wrap;html=1;" vertex="1" parent="xp_wefksQ9KYBnecpLCK-9">
          <mxGeometry x="30" y="310" width="110" height="70" as="geometry" />
        </mxCell>
        <mxCell id="xp_wefksQ9KYBnecpLCK-11" value="order-center" style="swimlane;startSize=20;html=1;" vertex="1" parent="1">
          <mxGeometry x="430" y="50" width="130" height="510" as="geometry" />
        </mxCell>
        <mxCell id="xp_wefksQ9KYBnecpLCK-16" value="交易订单下单" style="rounded=1;whiteSpace=wrap;html=1;" vertex="1" parent="xp_wefksQ9KYBnecpLCK-11">
          <mxGeometry x="25" y="130" width="80" height="40" as="geometry" />
        </mxCell>
        <mxCell id="xp_wefksQ9KYBnecpLCK-18" value="接收链上交易结果" style="rounded=1;whiteSpace=wrap;html=1;" vertex="1" parent="xp_wefksQ9KYBnecpLCK-11">
          <mxGeometry x="25" y="230" width="80" height="45" as="geometry" />
        </mxCell>
        <mxCell id="xp_wefksQ9KYBnecpLCK-15" value="task-center" style="swimlane;startSize=20;html=1;" vertex="1" parent="1">
          <mxGeometry x="560" y="50" width="130" height="510" as="geometry" />
        </mxCell>
        <mxCell id="xp_wefksQ9KYBnecpLCK-17" value="订单流转" style="rounded=1;whiteSpace=wrap;html=1;" vertex="1" parent="xp_wefksQ9KYBnecpLCK-15">
          <mxGeometry x="25" y="130" width="80" height="40" as="geometry" />
        </mxCell>
        <mxCell id="xp_wefksQ9KYBnecpLCK-30" style="edgeStyle=orthogonalEdgeStyle;rounded=0;orthogonalLoop=1;jettySize=auto;html=1;exitX=0.5;exitY=1;exitDx=0;exitDy=0;exitPerimeter=0;entryX=1;entryY=0.5;entryDx=0;entryDy=0;dashed=1;dashPattern=8 8;" edge="1" parent="1" source="xp_wefksQ9KYBnecpLCK-19" target="xp_wefksQ9KYBnecpLCK-18">
          <mxGeometry relative="1" as="geometry" />
        </mxCell>
        <mxCell id="xp_wefksQ9KYBnecpLCK-31" value="链上结果回调" style="edgeLabel;html=1;align=center;verticalAlign=middle;resizable=0;points=[];" vertex="1" connectable="0" parent="xp_wefksQ9KYBnecpLCK-30">
          <mxGeometry x="0.1922" y="3" relative="1" as="geometry">
            <mxPoint as="offset" />
          </mxGeometry>
        </mxCell>
        <mxCell id="xp_wefksQ9KYBnecpLCK-19" value="链上" style="shape=cylinder3;whiteSpace=wrap;html=1;boundedLbl=1;backgroundOutline=1;size=15;" vertex="1" parent="1">
          <mxGeometry x="740" y="200" width="60" height="80" as="geometry" />
        </mxCell>
        <mxCell id="xp_wefksQ9KYBnecpLCK-23" style="edgeStyle=orthogonalEdgeStyle;rounded=0;orthogonalLoop=1;jettySize=auto;html=1;exitX=1;exitY=0.5;exitDx=0;exitDy=0;entryX=0;entryY=0.5;entryDx=0;entryDy=0;" edge="1" parent="1" source="xp_wefksQ9KYBnecpLCK-10" target="xp_wefksQ9KYBnecpLCK-12">
          <mxGeometry relative="1" as="geometry" />
        </mxCell>
        <mxCell id="xp_wefksQ9KYBnecpLCK-24" style="edgeStyle=orthogonalEdgeStyle;rounded=0;orthogonalLoop=1;jettySize=auto;html=1;exitX=1;exitY=0.5;exitDx=0;exitDy=0;entryX=0;entryY=0.5;entryDx=0;entryDy=0;" edge="1" parent="1" source="xp_wefksQ9KYBnecpLCK-12" target="xp_wefksQ9KYBnecpLCK-13">
          <mxGeometry relative="1" as="geometry" />
        </mxCell>
        <mxCell id="xp_wefksQ9KYBnecpLCK-25" style="edgeStyle=orthogonalEdgeStyle;rounded=0;orthogonalLoop=1;jettySize=auto;html=1;exitX=0.5;exitY=1;exitDx=0;exitDy=0;entryX=0.5;entryY=0;entryDx=0;entryDy=0;" edge="1" parent="1" source="xp_wefksQ9KYBnecpLCK-13" target="xp_wefksQ9KYBnecpLCK-14">
          <mxGeometry relative="1" as="geometry" />
        </mxCell>
        <mxCell id="xp_wefksQ9KYBnecpLCK-28" style="edgeStyle=orthogonalEdgeStyle;rounded=0;orthogonalLoop=1;jettySize=auto;html=1;exitX=1;exitY=0.5;exitDx=0;exitDy=0;entryX=0;entryY=0.5;entryDx=0;entryDy=0;" edge="1" parent="1" source="xp_wefksQ9KYBnecpLCK-16" target="xp_wefksQ9KYBnecpLCK-17">
          <mxGeometry relative="1" as="geometry" />
        </mxCell>
        <mxCell id="xp_wefksQ9KYBnecpLCK-29" style="edgeStyle=orthogonalEdgeStyle;rounded=0;orthogonalLoop=1;jettySize=auto;html=1;exitX=1;exitY=0.5;exitDx=0;exitDy=0;dashed=1;dashPattern=8 8;" edge="1" parent="1" source="xp_wefksQ9KYBnecpLCK-17" target="xp_wefksQ9KYBnecpLCK-19">
          <mxGeometry relative="1" as="geometry" />
        </mxCell>
        <mxCell id="xp_wefksQ9KYBnecpLCK-32" style="edgeStyle=orthogonalEdgeStyle;rounded=0;orthogonalLoop=1;jettySize=auto;html=1;exitX=0;exitY=0.5;exitDx=0;exitDy=0;entryX=1;entryY=0.5;entryDx=0;entryDy=0;dashed=1;dashPattern=8 8;" edge="1" parent="1" source="xp_wefksQ9KYBnecpLCK-18" target="xp_wefksQ9KYBnecpLCK-20">
          <mxGeometry relative="1" as="geometry" />
        </mxCell>
        <mxCell id="xp_wefksQ9KYBnecpLCK-33" value="交易订单回调" style="edgeLabel;html=1;align=center;verticalAlign=middle;resizable=0;points=[];" vertex="1" connectable="0" parent="xp_wefksQ9KYBnecpLCK-32">
          <mxGeometry x="0.0301" y="4" relative="1" as="geometry">
            <mxPoint as="offset" />
          </mxGeometry>
        </mxCell>
        <mxCell id="xp_wefksQ9KYBnecpLCK-35" style="edgeStyle=orthogonalEdgeStyle;rounded=0;orthogonalLoop=1;jettySize=auto;html=1;exitX=0;exitY=0.5;exitDx=0;exitDy=0;entryX=1;entryY=0.5;entryDx=0;entryDy=0;" edge="1" parent="1" source="xp_wefksQ9KYBnecpLCK-21" target="xp_wefksQ9KYBnecpLCK-22">
          <mxGeometry relative="1" as="geometry" />
        </mxCell>
      </root>
    </mxGraphModel>
  </diagram>
</mxfile>
